<?xml version="1.0" standalone="no"?>
<!DOCTYPE svg PUBLIC "-//W3C//DTD SVG 20010904//EN"
 "http://www.w3.org/TR/2001/REC-SVG-20010904/DTD/svg10.dtd">
<svg version="1.0" xmlns="http://www.w3.org/2000/svg"
 width="260.000000pt" height="260.000000pt" viewBox="0 0 260.000000 260.000000"
 preserveAspectRatio="xMidYMid meet">
<metadata>
Created by potrace 1.14, written by Peter Selinger 2001-2017
</metadata>
<g transform="translate(0.000000,260.000000) scale(0.100000,-0.100000)"
fill="#000000" stroke="none">
<path d="M1981 2030 c-104 -37 -209 -137 -416 -396 -197 -247 -305 -343 -386
-344 -36 0 -93 56 -112 110 -14 41 -29 116 -32 165 -4 60 -30 175 -46 207 -58
113 -175 60 -344 -157 -54 -69 -171 -242 -214 -315 -169 -290 -376 -718 -356
-738 9 -9 27 15 130 176 236 372 409 538 567 547 123 7 206 -72 323 -305 93
-186 144 -245 220 -254 47 -6 90 11 134 55 49 49 91 118 193 317 95 186 129
241 179 291 43 44 84 63 135 63 122 0 243 -173 399 -567 69 -173 108 -260 123
-269 17 -10 32 12 41 59 9 50 7 275 -4 360 -3 28 -8 68 -11 90 -7 66 -17 125
-29 185 -2 14 -7 39 -10 56 -10 61 -64 260 -90 327 -106 282 -235 392 -394
337z"/>
<path d="M353 2028 c-5 -7 -27 -44 -48 -83 -21 -38 -45 -78 -54 -88 -14 -16
-16 -63 -16 -375 0 -228 4 -356 10 -359 6 -1 39 47 74 108 l64 110 -1 317 c0
174 -1 332 -1 350 -1 33 -12 41 -28 20z"/>
</g>
</svg>
