<svg xmlns="http://www.w3.org/2000/svg" viewBox="0 0 1075.56 659.93"><defs><style>.cls-1{fill:#f1ffe7;}.cls-2{fill:#000038;}.cls-3{fill:#537dc4;}.cls-4{fill:#293a7f;}.cls-5{fill:#537cc4;}.cls-6{fill:#293a80;}.cls-7{fill:#3c3c62;}.cls-8{fill:#060a0e;}.cls-9{fill:#05070b;}.cls-10{fill:#f09729;}.cls-11{fill:#5377bc;}.cls-12{fill:#020238;}.cls-13{fill:#04043a;}.cls-14{fill:#2e3a74;}.cls-15{fill:#f29629;}.cls-16{fill:#f29222;}.cls-17{fill:#00022b;}.cls-18{fill:#e7c7a1;}.cls-19{fill:#ddc59f;}.cls-20{fill:#f19425;}.cls-21{fill:#fbfbf9;}.cls-22{fill:#fbfbfa;}.cls-23{fill:#3a3d65;}.cls-24{fill:#303e7e;}.cls-25{fill:#f19626;}.cls-26{fill:#f19423;}.cls-27{fill:#f29423;}.cls-28{fill:#d2dde7;}.cls-29{fill:#547bc0;}.cls-30{fill:#f1ddc7;}.cls-31{fill:#e1e0dc;}.cls-32{fill:#e1dedb;}.cls-33{fill:#1a1c1f;}.cls-34{fill:#f0e9d2;}.cls-35{fill:#211c36;}.cls-36{fill:#ee9e37;}.cls-37{fill:#e0d2be;}.cls-38{fill:#3a3b65;}.cls-39{fill:#ebbf31;}.cls-40{fill:#ee982c;}.cls-41{fill:#95a3d8;}.cls-42{fill:#ef972c;}.cls-43{fill:#0a0b3d;}.cls-44{fill:#021b3a;}.cls-45{fill:#f1962a;}.cls-46{fill:#f8f9fb;}.cls-47{fill:#dbc49d;}.cls-48{fill:#b6bade;}.cls-49{fill:#5276bb;}.cls-50{fill:#5171b6;}.cls-51{fill:#26387c;}.cls-52{fill:#d0ddf1;}.cls-53{fill:#34599d;}.cls-54{fill:#537abe;}.cls-55{fill:#5478bd;}.cls-56{fill:#f09425;}.cls-57{fill:#ef9426;}.cls-58{fill:#527bc3;}.cls-59{fill:#4869a9;}.cls-60{fill:#3f5297;}.cls-61{fill:#f29322;}.cls-62{fill:#fefbfd;}.cls-63{fill:#d1e1f2;}.cls-64{fill:#d8e6f2;}.cls-65{fill:#fcfbf9;}.cls-66{fill:#fcfbfa;}.cls-67{fill:#f29526;}.cls-68{fill:#05053b;}.cls-69{fill:#4e7ec9;}.cls-70{fill:#4c6db0;}.cls-71{fill:#010139;}.cls-72{fill:#293b7f;}.cls-73{fill:#293974;}.cls-74{fill:#f7f9fb;}.cls-75{fill:#fcfcfa;}.cls-76{fill:#d0bc9e;}.cls-77{fill:#445796;}.cls-78{fill:#03033c;}.cls-79{fill:#263889;}.cls-80{fill:#d2dce8;}.cls-81{fill:#e4851f;}.cls-82{fill:#d8e6f3;}.cls-83{fill:#bdab94;}.cls-84{fill:#e1d5ca;}.cls-85{fill:#f19321;}.cls-86{fill:#f29424;}.cls-87{fill:#dae5f1;}.cls-88{fill:#547ec3;}.cls-89{fill:#fbfaf9;}.cls-90{fill:#5478be;}.cls-91{fill:#4767ab;}.cls-92{fill:#6477ac;}.cls-93{fill:#4b66ac;}.cls-94{fill:#6685bf;}.cls-95{fill:#b7cded;}.cls-96{fill:#05043a;}.cls-97{fill:#0b101c;}.cls-98{fill:#f6e8dd;}.cls-99{fill:#08072a;}.cls-100{fill:#fad8b2;}</style></defs><g id="Layer_2" data-name="Layer 2"><g id="Layer_1-2" data-name="Layer 1"><path class="cls-1" d="M661.08,78.12c1.38,1.07.43,2.9,1.45,4.32C673.73,78.63,685,75,697,73.92c13.9-1.28,27.81-1.63,41.64.39a164.27,164.27,0,0,1,40.57,11,143.5,143.5,0,0,1,52.37,37.53c1.67,1.89,3.84,1.64,5.33,3.11-5.58,6-9.78,13-14.37,19.72q-49.77,72.75-99.67,145.39a35.91,35.91,0,0,0-6.21,14.52c-1.86,10.83-4.44,21.52-6.57,32.3-1.06,5.39-.66,5.89,4.75,7q39.08,8.32,78.27,16.06c8.13,1.62,8.45,2.19,6.87,10.32-1.91,9.81-4.12,19.55-6.1,29.34a12.41,12.41,0,0,1-1.43,3.38c-3.71,1.77-1.13,4.48-1,6.83-.24,5.88-1.94,11.49-3.22,17.16-.81,3.57.32,5.22,3.89,5.92,14.71,2.88,29.35,6.07,44,9,3.83.77,5.53-.54,6.35-4.18s.9-7.64,2.65-11.15c.33-.58.67-1.43,1.23-1.51,6-.82,12-2.45,18.11-.77,1.38,2.66,1.21,5.55.92,8.32-1.36,12.88-1.41,25.85-2.69,38.74-.72,7.15.1,14.27.65,21.38s-.75,14.27-1.13,21.4c-1.31,24.75-2.59,49.46-1,74.27.62,9.76.69,19.58.8,29.37a6.58,6.58,0,0,1-2.15,3.27c-3.81,3.44-6,3.21-8.59-1.31-4.68-8.2-11.61-12-21-11.43a19.42,19.42,0,0,0-12.22,5c-1.47,1.33-2.75,2.92-4.82,3.41-3.6.13-3.13-2.85-3.31-4.84-.34-3.87-.08-7.78-.17-11.67-.07-.46-.11-.94-.14-1.4.17-2.63-.82-4.05-3.69-3.7a57.59,57.59,0,0,1-5.88.3c-1.94,0-3.88.08-5.5-1.27-1.47-2.43-1.27-5-.54-7.56,1.29-2.7,3.8-2.69,6.3-3s5.22,1,7.63-.61c.87-5.2,1.73-10.38.65-15.65-.4-1.31-.08-2.74-.72-4a2.24,2.24,0,0,0-1.77-.8c-12.68,1.76-25.49-.43-38.18,1.23a6.35,6.35,0,0,1-1.63,0c-9.69-.29-19.37-.92-29.07-.39a27.55,27.55,0,0,1-8.35-.35c-2.05-.79-2.62-2.8-3.65-4.43-3.11-5-5.32-5.15-9.6-1-1.89,1.85-2.8,4.44-4.93,6.05-5.5.14-5.56,4.24-5.89,8.13a8.79,8.79,0,0,1-4.47,5.22,81.5,81.5,0,0,0-10.79,4.63c-2.11,1.05-4.3,1.85-6.19-.48a32.29,32.29,0,0,0-9.49-13.79A24,24,0,0,1,665.4,550c-.18-7.1-1.84-13.76-7.74-18.73-7.14-6-14.5-4.09-17.43,4.81-1.56,4.7-1.24,9.58-.81,14.34,1,11-3,20.5-8.13,29.75-1.78,1-2.93,0-3.55-1.46-3.76-9-9.57-16.53-16.55-23.24a4.06,4.06,0,0,1-1.06-2.21c.33-7.67,1.79-15.21,2.69-22.82a14.06,14.06,0,0,0,.64-5.62c4.16-22.54,1.87-44.76-4.16-66.59-4.63-16.76-1.25-31.73,7.66-46.11,3.84-6.2,8.21-12.11,11.23-18.8,1.49-5.73,5.08-10.46,7.58-15.7a5.84,5.84,0,0,0,2-4.5c2.85-12.16-1-23.72-3.2-35.41a21.09,21.09,0,0,0-1.25-4.82c-3.71-8.25-2.13-16.88-2-25.41,4.1-5,9.46-8.73,13.57-13.84,12.33-15.35,17.91-33.07,18.38-52.3.91-37.79-1.38-75.55-2.23-113.32-.35-15.1.48-30.29-1.34-45.37C659.49,81,659.5,79.28,661.08,78.12Z"/><path class="cls-1" d="M59.71,615.25c0-4.44-4.13-6.2-6.35-9.06a258.48,258.48,0,0,1-30.69-50.35A275.73,275.73,0,0,1,9,520.62,212.27,212.27,0,0,1,.84,480.84C-.36,469.19.09,457.59.05,446,0,433.81,2.53,422,5.68,410.29A153.53,153.53,0,0,1,21.94,372C33.4,352.5,49.45,338.2,69.49,328.06c13.63-6.9,27.33-13.68,40.65-21.15,23.91-13.42,37.06-34.83,43.85-60.78,4.37-16.65,7.33-33.71,14-49.7,8.44-20.12,20.64-37.1,40.71-47.12,10.47-5.23,21.8-7.77,33.37-9.17,22.55-2.73,44.62.09,66.38,6,3.82,1,7.49,2.64,11.22,4,1.11,2.1-.52,3.48-1.47,4.89q-22.42,33.66-44.76,67.4c-14.64,22.06-29.16,44.19-43.89,66.19a17.6,17.6,0,0,0-2.54,6.45c-2.46,12.24-4.62,24.54-7.11,36.78-1,5.07-.58,5.63,4.57,6.72,8.48,1.78,17.05,3,25.51,4.92,2.08.46,4.36.58,5.59,2.79,1.06,2.83-.27,5.2-1.56,7.52-2,3.65-4.84,6.75-7.2,10.17-6.68,9.72-11,20.1-8.68,32.27a36.08,36.08,0,0,1,.21,7c.71,12.92,2.59,25.72,2.33,38.73-.28,14.11-1.63,28.14-2.26,42.22-.86,23.38-.31,46.79-1.63,70.16-.2,3.64.06,7.31-.54,10.93a11,11,0,0,1-3.76,6.27c-4.76,3.79-8.37,8.9-13.81,11.87a2.29,2.29,0,0,1-1.67-1.53c-.35-9.69-4.09-17.47-11.87-23.62-4.59-3.63-6.51-9.16-6.55-15.12a41.05,41.05,0,0,0-1.21-9.88,19.91,19.91,0,0,0-5.69-9.79c-3.37-3.15-7.28-4.93-11.84-3.31s-6.61,5.44-7.24,10a54,54,0,0,0-.1,13,36.26,36.26,0,0,1-2.68,17.06c-1.85,4.82-4.17,9.44-5.86,14.32-2.64,7.58-2.45,14.71,3.41,20.93,5.09,5.41,5.92,11.68,3.59,18.55-1,2.73-.69,5.59-.69,8.39,0,4.21-2.72,5.34-6.15,5.67-3.74.37-4.24-2.19-4.56-5.07-1-8.47-4.24-11.77-12.64-12.43a12.43,12.43,0,0,1-7.85-3.8c-14.36-13.54-33.5-10.45-42.8,7.09-1.89,3.56-3.53,4-6.88,2-6.7-4-12.51-3.16-17.09,1.91-4,4.47-4.19,4.5-9.34,1.07C61.65,617.83,60,617.19,59.71,615.25Z"/><path class="cls-1" d="M405.88,168.13c29.59.3,58.4-5,87-12,2.58,3.33,1.68,7.37,1.95,11,1.07,14.11-.11,28.31.88,42.4,1.18,16.89-.27,33.92,3.75,50.67,4.83,20.16,15.2,36.34,32.06,48.38,1.62,1.15,3.43,2.09,4.26,4.07A16.12,16.12,0,0,1,535.1,323c-4.53,12.07-6.63,24.71-8.48,37.38-1.22,8.28,1.63,15.75,6,22.66,2.94,4.63,6,9.18,7.67,14.47a85.33,85.33,0,0,0,8,10.21c10.3,11.07,14.22,24.5,15.15,39.17.39,6.13-1.08,11.85-3.1,17.55-2.89,8.15-6.35,16.07-8.57,24.49s-2.72,17.11-3.21,25.69c-.59,10.28-.36,20.61-1.21,30.9a19,19,0,0,0,1,7.88,4,4,0,0,1,0,1.62c-2.68,4.7-6.89,8.1-10.64,11.79-3,3-6.83,1.29-10.16-.54-1.44-2.23-.51-4.55-.1-6.79A75.7,75.7,0,0,0,528.56,545c0-3.1-.94-4.51-4.44-4.13-9,1-9.58.24-10.68-8.55a91.39,91.39,0,0,0-8.26-27.65c-3.2-6.78-3.06-7.34,3.31-10.95,5-2.84,5.13-3.44,1.93-8.43a109.86,109.86,0,0,0-14.8-18.17c-2.78-2.8-5-2.92-7.39.13-.51.65-1.08,1.26-1.64,1.88-3.51,4-4.47,4.21-8.67.83a102.66,102.66,0,0,0-30.05-16.54C444,452,442.37,450,444,446c.48-1.24.66-2.59,1.06-3.85.84-2.6,0-4.2-2.7-4.75-9-1.8-18-3.35-27.24-2.9-2.82.13-3.86,1.5-3.58,4.17.14,1.33.41,2.63.57,4,.39,3.37-.92,5.44-4.4,6-5.76.92-11.47,2-17.13,3.45s-11,3.88-16.34,6.16c-5.77,2.46-6.31,2.19-9.56-3.16-3.72-6.13-3.69-6.08-9.61-2A174.17,174.17,0,0,0,339,465.7c-4.54,3.95-4.53,5.55-.23,9.59,5.23,4.92,5.25,5.17.77,11a96.51,96.51,0,0,0-14.65,26.58c-2.41,6.77-3.51,7.18-10.38,5.33-5.18-1.4-5.71-1.14-6.81,4a103.85,103.85,0,0,0-2.39,24.3c.08,3.58.95,5.08,4.95,4.61,8-1,8.23-.62,9.55,7.44,1.69,10.22,4.1,20.23,8.7,29.61,2.83,5.77,2.36,7-3.37,10.26a21.55,21.55,0,0,1-6.4,2.76,14.15,14.15,0,0,1-5.85-.67,27.4,27.4,0,0,0-20.12,2.23c-1.67.85-3.54,3-5.63.46-1.08-10.41-1.77-20.8.41-31.16.58-.33-.26-.19.37-.31,7.54-1.51,8.14-6.89,7.43-13.09-1.8-15.54-.51-31.15-1.05-46.72-.29-8.77-1.61-17.51-.56-26.3.57-7.74-2.3-15.07-2.73-22.7-.72-13-1.79-25.88,2.62-38.51a26.9,26.9,0,0,0,1.33-14.26,6.87,6.87,0,0,1,.5-4.87c2-1.64,4-2.64,6.24-.32,1.13,4.93-.76,9.52-1.67,14.21-1.38,7.12-1.22,7.39,6,8.74,13.43,2.5,26.82,5.21,40.26,7.67,6.21,1.14,6.73.69,7.86-5.6,3.37-18.69,7.08-37.31,10.67-56,1.36-7.11,2-7.38,9-6.05,5.72,1.1,11.48,2.07,17.17,3.34,3.36.75,4.9-.49,5.5-3.83,2-11.15,4.24-22.26,6.31-33.39.89-4.78.35-5.56-4.39-6.4-5.91-1-11.79-2.18-17.65-3.47-5.13-1.13-5.72-2-5-7.24.86-5.94,2.11-11.81,3.25-17.69,8-41.22,15.56-82.51,23.71-123.69C403.18,172.94,402.87,169.77,405.88,168.13Z"/><path class="cls-1" d="M1029.94,659.05c7.27,0,14.54.08,21.81,0,3.46,0,6.92-.14,10.37-.32,3.19-.15,6.38-.36,9.57-.66,2-.19,4.82.65,3.56-3.26-3.82-11.84-7.68-23.73-15.17-33.84-6.6-8.92-13.78-17.42-20.87-26-13.74-16.54-19.37-34.93-14.62-56.44,2.43-11,5.65-21.81,8.84-32.61a255.78,255.78,0,0,0,9.24-44.66,167.37,167.37,0,0,0,.4-33.73c-1-11-1.51-22.12-3.25-33.08-3.41-21.46-11.78-40.72-26.26-57-13.92-15.7-30.17-28.28-50-35.93a186.12,186.12,0,0,0-31.43-9.23c-19-3.69-38.59-3-57.36-8.17-2.07.07-2.23,1.82-2.49,3.17-2.44,12.49-5.54,24.87-7.22,37.51,1.34,4.74,5.58,4.79,9.22,5.41,6.06,1,12.18,1.69,18,3.72,9.75,3.38,12,8.49,8,18.07-1.6,3.85-4.42,7.06-5.54,11.13,0,5.18-.54,10.5,4.19,14.28,7.18,4.32,8.78,11.55,9.09,19,.42,9.79,1.08,19.58,1.39,29.39.29,9.11.64,18.26,1.47,27.37,1.22,13.58,5,26.87,4.38,40.63-.11,28.59-.29,57.18-1.15,85.77q-.27,9-.69,17.92c-.35,7.63-1.68,15.22-1.08,22.89a4.29,4.29,0,0,0,2.06,3.35,8.68,8.68,0,0,0,3.8.84c2.85.13,5.63.46,8.13,2,2.88,1.84,4.82,4.53,6.74,7.27,1.05,1.49,2.09,2.28,3.13,2.15a2.36,2.36,0,0,0,1.36-.73,6.8,6.8,0,0,0,1.13-1.51,8.55,8.55,0,0,1,6.44-4.24,8.26,8.26,0,0,0,1.8-.5,14.09,14.09,0,0,0,3.26-1.9l0,0,.63-.48c8.24-6.37,17.16-5.25,23.43,3.14,1.44,1.92,2.93,3,4.88,3.08a6.16,6.16,0,0,0,1-.08,8,8,0,0,0,1.32-.34,7.91,7.91,0,0,1,8,1.24,6.43,6.43,0,0,0,4.23,1.63,7.89,7.89,0,0,0,2.62-.53,11,11,0,0,0,1-.42c4.64-2.16,9.42-2.4,13.86.43a8.57,8.57,0,0,0,4.9,1.45,10.37,10.37,0,0,0,1.45-.16h0a12.21,12.21,0,0,0,2.14-.62c3.19-1.21,6.8-1.67,9.71.15,4.61,2.89,7.7,8.12,13.8,8.77a.44.44,0,0,0,.25,0h0s.05,0,0,0,0,.12.08.32c1.75,3.5,4.77,3.69,8.1,3.31a6.72,6.72,0,0,1,3.86.84c2.31,1.21,4.55,2.82,4.06,5.67-.53,3-3.42,1.81-5.39,2.07a27.07,27.07,0,0,1-3.49,0q-66.18,0-132.36,0c-2.58,0-5.25-.43-7.71.69Z"/><path class="cls-2" d="M535.18,312.85c-29.62-18.24-39.49-46.47-40.28-79.37-.61-25.79-1.35-51.57-2-77.36-.46-21.46-1.18-42.91-1.32-64.37-.17-26.49,4.89-51.32,24.81-70.84,9.93-9.73,22.07-15.2,35.51-18,19.2-4,38.42-4.23,57.22,1.74,26.95,8.55,41.54,28.55,48.6,54.86,1.63,6.07,2.29,12.41,3.39,18.62q2.79,79.27,3.89,158.59c.3,21.53-5.41,41.41-19.34,58.38A71.08,71.08,0,0,1,631.82,308c-2,.41-2.35-1.43-3.23-2.47-1.17-1.38-2.23-2.83-4.73-3.43,1.63,6-2.05,9.95-4.67,14.28A70.27,70.27,0,0,1,594.28,323c-16.81,1.49-33.53,1.32-49.67-4.65C541.54,316.41,537.46,316.16,535.18,312.85Z"/><path class="cls-2" d="M405.88,168.13c-2.65,13.16-5.39,26.31-7.93,39.5Q387.6,261.5,377.38,315.39c-1.25,6.54-1.34,6.48,5.45,7.78,6.53,1.24,13,2.74,19.57,3.76,2.55.39,3,1.37,2.56,3.56-2.63,13.54-5.28,27.07-7.78,40.63-.41,2.25-1.22,2.55-3.29,2.11-7-1.46-14.07-2.5-21-4.12-4.13-1-5.91-.39-6.73,4.32-3.47,20-7.52,39.87-11.11,59.83-.73,4.11-1.94,5.37-6.35,4.44-16.09-3.41-32.26-6.45-48.45-9.37-3-.55-3.26-1.46-2.67-4.17,1.39-6.32,2.35-12.73,3.48-19.11,1-2.63,3.45-2.9,5.64-3.57,11-3.38,21.88-6.94,32.28-11.91a20.32,20.32,0,0,0,9-8.3c7.49-12.72,12.13-26.63,17-40.44a55.32,55.32,0,0,1,5.26-11.78c2.92-4.58,4.37-9.5,2.48-15-2.52.51-2.65,2.45-3.53,3.76-1.13,1.7-1.48,5.06-4.75,2-1-1-1.77.32-2.16,1.21a13.63,13.63,0,0,0-1.26,7.3c.6,4.25-1.06,7.69-3,11.32-6.59,12.68-14,25-17.71,39-.64,2.45-2.06,3.7-4.55,3.79-8.84.33-17.51,2-26.23,3.29-4.87.72-5.71-.18-4.93-5.07.89-5.59,1.75-11.19,3.13-16.68,1-4-.18-6.07-4.31-6.4-3.82-.9-7.85-1-11.39-2.95-1.65-2.17-.12-4.13.49-6.11,2.65-8.53.78-12.82-7.54-16.19-4.81-1.95-9.8-3-15.11-2.06-6.79,1.25-11,5.07-12.74,11.76-.45,1.73-.6,3.66-2.3,4.82-11.25-2.18-22.48-4.49-33.77-6.47-2.77-.48-3.7-1.22-3.14-4.07,2.8-14.36,5.42-28.75,8.25-43.1.31-1.55,1.46-3,2.37-4.34q45.12-68,90.26-136a19.17,19.17,0,0,0,.91-1.74c6.61-9.76,13.35-19.42,19.73-29.32,1.69-2.64,3.41-3,6.1-2.48q31.26,6,62.56,11.89c3.23.6,4.32,1.61,3.6,5.18C409.57,146.91,407.06,157.41,405.88,168.13Z"/><path class="cls-2" d="M875.8,285.09q-4,18.6-8,37.2c-.28,1.29-.69,2.55-1,3.82-.28,1.6-.06,3.27-.6,4.82-1.55,4.47-.64,8.62,1.57,12.62-.44,6.45-1.78,12.8-1.47,19.33.37,7.86,2.78,10.48,10.53,10.56,4.88,0,5.12.31,5,5.52a3.37,3.37,0,0,1-1.56,1.82c-4.07,1.19-7.85-.52-11.67-1.37-10.35-2.3-10.33-2.38-12.67,7.74-1.08,5.79-2.07,11.59-3.57,17.29-.87,3.46-.58,7.31-3.38,10.13-2.57,1.4-5.16.61-7.77.1-10.58-2.07-21.12-4.37-31.91-5.17a8.86,8.86,0,0,1-5.56-1.89c-2.8-2.58-6.18-3.78-9.77-4.62-.78-.45-1.48-.95-1.14-2,2.16-11.08,4.18-22.19,6.57-33.23.66-3.05.06-4-3-4.63-28-5.62-56-11.47-84.06-17-4.43-.88-5-2.52-4.08-6.57,2.47-10.68,4.64-21.44,6.63-32.23a44.37,44.37,0,0,1,7.29-17.69q55.27-80.16,110.17-160.57c1.14-1.67,2-3.52,4.52-3.07,21.12,4.39,42.22,8.85,63.38,13.08,3.84.77,4.92,1.67,4,6-9.6,45.63-18.87,91.33-28.22,137A26.62,26.62,0,0,0,875.8,285.09Z"/><path class="cls-3" d="M59.71,616.25l1.2.85c4.3,3.07,7.81,5.66,12.15-1,3.08-4.73,11-4.53,16-1.4,1.39.87,2.71,1.87,4.36,3,2.44-5.81,5.43-11,10.63-14.66a27.41,27.41,0,0,1,35.88,3.37c2.33,2.47,4.49,3.73,8,3.7,7.6-.08,12.73,5.54,13.21,13.33.1,1.51-1.67,4.72,2,4.32,2.66-.3,6.73.36,5.91-4.93-.39-2.51-.72-5.32.83-7.77,2,1.67,1.43,4,1.36,6-.09,3,1,4.63,4,5.17,10.67,1.9,17.8,8.43,22.62,17.78.95,1.86,1.89,2.66,3.76,1.17a10,10,0,0,1,3.07-1.65c3.81-1.22,4.8-3.67,3.44-7.34a15,15,0,0,1-1.19-5.33c0-1,.2-2.58,1-2.62,6.77-.28,7.19-7.14,11-10.45,1-.83,1.38-2.26,2.49-3.07a3.1,3.1,0,0,1,1.95-.42c1.56.32,3,1.79,4.73.7a16.46,16.46,0,0,1,2.55-1,61.43,61.43,0,0,1,8.24-.66c2.86.67,5.86,1.07,7.75,3.76,2.47,9.4,3.43,19.14,6.32,28.46a7.78,7.78,0,0,1-.21,3.29c-2.66,3.67-3.87,8.51-8.5,10.62q-106.71,0-213.41,0c-1.94,0-4,.62-5.84-.58,0-6,0-12,0-18,0-17.88,14.91-29.52,32.26-25.2C58.07,616,58.89,616.09,59.71,616.25Z"/><path class="cls-4" d="M699.94,577.16l3.78-3.81c2.23,1.9,1.34,4.51,1.58,6.86-.27,4.41,2.68,4.59,5.87,4.44,2.36.62,5.21-1.76,7.2,1.16-.33,3.92-1.65,7.37-4.73,10-8.26,1.82-8.26,1.82-8.29,10.39,0,1.81,0,3.61-.12,5.42a7,7,0,0,1-.51,2.22c-2.68,4.07-7.49,5.3-11.06,8.21a1.89,1.89,0,0,1-2.33.16c-1.06-.77-.53-1.85-.26-2.73,1.92-6.35,4.94-12.28,7.16-18.52.55-1.56,1.32-3.05,1.75-4.65-1.75,4.94-4,9.72-5.68,14.68-.3.86-.71,2.07-1.91,2s-1.29-1.29-1.46-2.27c-.64-3.68-1.43-7.34-1.28-11.13,1.4,10.37,3.16,20.61-2.75,30.46-2.45,4.08-3.44,9-5.48,13.33-.46,1-.54,2.56-2,2.62s-1.34-1.61-1.87-2.54-.62-2.24-1.13-3.29c-.22-.62-.87.22-.29-.12.11-.07.25.05.32.36.81,3.69,3.35,7.12,1.7,11.17,3.37-7.93,6.58-15.92,9.57-24,1.3-3.52,4.45-4.3,6.94-6,3.1-2.13,6-4.79,9.93-5.46a6.69,6.69,0,0,1,1.48.21c2.85.89,4,2.56,1.7,5-3,3.2-3.94,7.14-4.75,11.23a64,64,0,0,1-8.36,21.62c-1.25,2-2.58,3.84-4.78,4.87l-46-.11c-2.38-2.88-.73-6-.71-8.67-.43.74-.21,2-.49,3.12-.65,2.58-2.58,2.34-3.59.8-5.06-7.75-12.58-14.57-10.37-25.32.73-1.66-.81-4.3,2.12-5,4.14,2.34,3.19,7,4.74,10.49a7.86,7.86,0,0,1,.26,2.33c.25-2-.84-3.21-1-4.67-1-4.53.16-9,.84-13.36a15.12,15.12,0,0,0-3.63-12.92c-4.32-5-6.39-10.82-5.53-17.51.41-3.21,1.34-6.17,4-8.29a33.25,33.25,0,0,1,1.43-3.72c5.05-9.68,7.45-19.8,5.85-30.79a19.82,19.82,0,0,1,2.49-13.47c3.25-5.35,8.52-7.17,14.14-4.48,6.07,2.9,9.7,7.92,11.29,14.41a12.33,12.33,0,0,1,.48,3.45c-.51,10.78,3.54,19.25,12.12,25.91A15.5,15.5,0,0,1,684.1,582a9.4,9.4,0,0,1,1.77,7.85C690.65,585.38,694.38,580.27,699.94,577.16Z"/><path class="cls-3" d="M288,604c8.49-6.13,17.64-7.8,27.63-4.24a17.32,17.32,0,0,0,3.4.5,6.73,6.73,0,0,1,.91.39c5.85,4.05,11.34,8.2,18.84,9.71,6.07,1.22,8.33,7.44,9.42,13.4-.06,2,1,2.48,2.79,2.24a40.39,40.39,0,0,1,8.23-.17A34.28,34.28,0,0,1,375,632.91c5.37,4.08,5.39,4.12,10.77.35a28.82,28.82,0,0,1,14.79-5.5c1.81-.12,3.68-.2,5.31.94,1,1.5.31,3,0,4.5-1.51,4.75-3.53,9.31-5.07,14-.86,2.66-2.64,4.56-5.41,4.3-6.14-.56-10.51,1.05-11.55,7.82-2.35.53-4.8-.35-7.12.56h-5.56c-.69-.3-1.44-.54-1.75-1.34-.32-3.85,1.54-7.09,3-10.39,3.07-6.8,1.1-11.88-5.93-14.63a15,15,0,0,0-13,.58c-2.88,1.55-5.24,1.49-7.59-1-2.76-2.89-6.1-2.32-9.24-.79-2.91,1.42-4.44.43-6.09-2.07-6.78-10.27-16.39-11.61-25.73-3.73-1.55,1.31-3.14,2.58-5.23,2.66-4.73.19-7,2.82-8.32,7.17-1.22,4.19-2.69,4.43-6.25,1.67-.42-10.11.47-20.18.84-30.27A4.71,4.71,0,0,1,288,604Z"/><path class="cls-3" d="M758.86,659.05c-3.85,1.46-7.85.6-11.77.6-7.77,0-15.55-.42-23.33-.65a4.72,4.72,0,0,1-1.29-3.16c.19-13-1.49-26.11,1.37-39,3.11-2,6.57-1.21,9.93-1.22s6.7-.24,10.05-.05c3.66.06,7.32-.26,11,.08,1.57.06,3.13.15,4.39,1.28,1.63,2.37,1.18,5.11,1.27,7.74.25,7.3-.61,14.65.86,21.9C759.68,650.54,761.58,655.25,758.86,659.05Z"/><path class="cls-3" d="M627.9,658.92l-1,.31c-10.22.7-20.45.1-30.66.31-3.82-.94-2.21-4.17-2.71-6.5-.32-1.52.43-3.69-1.73-4.15-2.33-.5-2.8,1.69-3.68,3.26-1.52,2.73-1.49,6.68-5.67,7.39-32.83,0-65.64,0-98.46,0-1.84-.27-1.38-1.42-.86-2.47.86-1.72,2.37-1.27,3.8-1a19.23,19.23,0,0,0,6.41.6q40.57,0,81.16,0c2.13,0,4.34.36,6.26-1,4.49-4,3.56-9.69,4.58-14.76-5.55-1.79-1.3-6.45-2.77-9.46-1.25-2.55-.88-5.15.16-7.73a7.89,7.89,0,0,0,0-5.38c-2-6.38-1.37-12.63,0-19.13a73.45,73.45,0,0,0,1-19.83,126.28,126.28,0,0,1-.12-15.44c.09-1.51-.37-4.3,2.94-3.32,2,7.24.91,14.74,1.81,22.1a72.5,72.5,0,0,1-.19,17.78,40.16,40.16,0,0,0-.21,16.34c.85,6.12.28,12.27.44,18.41,0,1.66-.09,3.33.09,5s.12,3.5,2.33,3.87,3.33-1.21,3.92-3c1.95-6,3-12.26,4.25-18.44.4-1.91.32-4,1.9-5.54a18.29,18.29,0,0,1,10.48,12.18c1.75,6,4.21,11.15,9.16,15.46C624.54,648.22,626.68,653.52,627.9,658.92Z"/><path class="cls-5" d="M689.92,659a66.16,66.16,0,0,0,12.24-29.07c.56-3.62,1.65-7.15,4.84-9.53,2.66-2-.09-2.27-1-3.14,1.6-2,3.87-1.67,6-1.7,2.19.16,4.52-.26,6.34,1.5a12.27,12.27,0,0,1,2,7c.3,10.06.16,20.12.09,30.19a6.53,6.53,0,0,1-1.4,4.63Z"/><path class="cls-6" d="M627.9,658.92A30.52,30.52,0,0,1,623,650.3a10.32,10.32,0,0,0-4.33-5.95c-4.84-2.74-6.66-7.22-7.7-12.22a18.62,18.62,0,0,0-6-10.65c-1.36-1.18-2.85-2.37-3.2-4.34-2.46-5,.11-10,.21-15,1.36-2.56,2.8-.95,3.83.15,6.17,6.53,13.39,11.62,21.05,16.23,2,1.18,4.59,2.29,4,5.51-1.91,1,.28,2.91-1,4-2.36.43-.47,2.11-.86,3.16-.48,1.28.35,3.34-1.46,3.76-1.53.36-1.74-1.63-2.49-2.6-.9-1.16-1.71-2.39-2.58-3.58a28.61,28.61,0,0,1-1.89-2.78,22.17,22.17,0,0,0,1.9,3c2.2,2.51,3.63,5.55,5.73,8.14,1,1.22,2.07,3.08.74,4.54-1.15,1.25-2.76.16-4.1-.42a2.69,2.69,0,0,0-1.62-.22c10.45.48,13.07,9.59,18,16.08a1.31,1.31,0,0,1-.43,1.76Z"/><path class="cls-6" d="M758.86,659.05c0-2.89,0-5.79.09-8.68,0-1.4-.3-3,1.81-3.31,3.72.44,6-.94,8-4.39,3.57-6.12,9.36-9.74,16.33-11.25,2.1-.45,4.34-1,5.69,1.53,1.29,7.85.37,15.74.63,23.61A2.7,2.7,0,0,1,790,659Z"/><path class="cls-7" d="M973.85,171a13.92,13.92,0,1,1-27.83-.25,13.92,13.92,0,0,1,27.83.25Z"/><path class="cls-8" d="M719.08,658.93c-.33-13.82,1.54-27.71-1.28-41.45,1.27-2.11,3.19-1.82,5.15-1.4a2.91,2.91,0,0,1,1.44,1.24c.47.62,1.68,1,1.3,1.9-4.22,10.25-.89,20.94-1.89,31.37-.26,2.78,0,5.6,0,8.4A7.42,7.42,0,0,1,719.08,658.93Z"/><path class="cls-9" d="M790,659V632.15c-1.32-5.26-2.58-10.52-.48-15.9a7.5,7.5,0,0,1,6.55.39,4.1,4.1,0,0,1,1.28,4.45c-1.39,4.13-.82,8.4-1,12.62,0,6.42,0,12.84,0,19.25,0,2.12.22,4.33-1.47,6.06A7.4,7.4,0,0,1,790,659Z"/><path class="cls-10" d="M265.75,90.9c-.31,2.27-2,2.25-3.41,2.08-4.07-.49-6.4.53-5.57,5.27.27,1.54.34,3.67-2.18,3.57-2.34-.1-1.78-2.2-1.59-3.45.66-4.45-1.09-6-5.45-5.4-1.45.2-3.63.6-3.57-2.1.06-2.46,2.08-1.84,3.32-1.69,4.35.54,6.48-.81,5.72-5.55-.21-1.25-.75-3.29,1.62-3.41,2.67-.14,2.36,2,2.11,3.52-.85,5,1.68,5.9,5.84,5.44C263.91,89,265.79,88.59,265.75,90.9Z"/><path class="cls-11" d="M622.9,628.05l4.55,6.21c1.28-3.37-.65-6.65,0-9.93,2.2.72.95,3,2.35,3.73-1.84,11.21,6,18.17,11,26.62,2-1.46.15-4.09,3.15-5.11v9.33l-3.14,0c-4.48-9.24-10.49-16.82-21.59-19,3.6-1.36,6,.8,9.31,1.54-1-5-4.83-8.13-6.76-12.27C621.5,628.15,622,627.86,622.9,628.05Z"/><path class="cls-12" d="M903.84,659.22l-1,.26-11-.49a1.68,1.68,0,0,1-.4-1.91c1.44-1.9,3.89-2.29,5.64-3.72a39.4,39.4,0,0,0,4.44-4.23,7.77,7.77,0,0,1,3.19-2.07,6.91,6.91,0,0,1,5.77.81A9.41,9.41,0,0,1,910.8,659h0C908.52,660,906.18,659.56,903.84,659.22Z"/><path class="cls-13" d="M434.14,52.68a6.27,6.27,0,0,1-6.73,6.39c-3.81-.36-6-2.66-6.28-6.47a6.44,6.44,0,0,1,6.59-6.6A6.29,6.29,0,0,1,434.14,52.68Z"/><path class="cls-14" d="M892,657.1c0,.63-.09,1.26-.14,1.89q-37.08.09-74.16.19c-7.63,0-15.26-.11-22.89-.16q.07-13.07.16-26.12a1.24,1.24,0,0,1,1.48.56c1.57,4.36.47,8.88.82,13.32.21,2.78-.6,5.65.69,8.33a7.51,7.51,0,0,0,1.25,1c4.95,1.09,9.93.41,14.88.47,10.46.14,20.91,0,31.36.07,1.51.18,3,.69,3.89-1.38.37-.88,1.6-.95,2.6-.51,1.6,2.28,4,1.76,6.28,1.86a90.46,90.46,0,0,0,12.31-.49,160.43,160.43,0,0,0,16.7.33C888.85,656.45,890.53,656.06,892,657.1Z"/><path class="cls-15" d="M839.05,40.34c.1,2.44-1,3.87-3.39,4a3.33,3.33,0,0,1-3.87-3.48c-.08-2.19.83-3.81,3.42-3.84C837.55,37,839,37.9,839.05,40.34Z"/><path class="cls-16" d="M547.81,554.2a3.3,3.3,0,0,1-1.77-3.29c1.15-21.4-.67-43,4.88-64.06,2-7.53,5.11-14.76,7.86-22.07,7.18-19.06,2.53-36.27-8.42-52.32-3.45-5.07-7.74-9.57-11.64-14.33a4.44,4.44,0,0,1,1.21-5c3.15-2.92,5.74-6.48,9.53-8.7a3.51,3.51,0,0,1,3.64,1c2.86,3.62,6.52,3.8,10.54,2.82,1.42,1.11,1.89-.07,2.45-1.06,2.69-1.73,5.53-2.6,8.72-1.65,7.42,5.61,12.3,5.92,18.78,1.18,3.44-1.57,6.9-.91,10,.55,4.08,1.91,7.19,1.63,9.56-2.46a4.05,4.05,0,0,1,1.53-1.23c7.46-.64,11.43,4.29,15.23,9.52-3.42,8.15-9.27,14.86-13.39,22.58-6.29,11.78-10.19,23.91-6.79,37.63,4.43,17.88,8.55,35.9,7.09,54.56-.45,5.78-1.36,11.52-2.06,17.27-1.37,1.56-.42,3.46-.77,5.18a170.11,170.11,0,0,1-3.19,23.68,3.51,3.51,0,0,1-2.42,1.39c-7.51.7-15,.32-22.55.23-6.33.26-12.66.23-19,0S554,557.14,547.81,554.2Z"/><path class="cls-16" d="M879.63,380.3l1.49-1c5.64-5.13,12.7-6,18.77-2.28,9.49,3.77,10.32,12.37,10.86,20.63,1.28,19.55,1.85,39.16,3.1,58.71.68,10.76,3.6,21.28,4.16,32.08.09,1.82.35,3.65-.32,5.42-1.44,1.75-3.48,1.77-5.46,1.79-11.6.11-23.2.27-34.79-.09-5.14-.26-10.43.45-15.19-2.29-2.87-13.09-.37-26.19,0-39.28.28-9.64,1-19.27,1.59-28.9,2.33-4.38,6.77-5.3,11-6.64.65-.09-.13.17.49,0a58.5,58.5,0,0,0,25.33-16.74c1.87-2.11,2.64-5.15.61-7.86s-4.89-3.69-8.39-2.81c-6.7,1.68-12.53,5.29-18.68,8.17-1.2.56-2.28,1.39-3.51,1.89-1.54.63-3.29,1.51-4.61,0-1.14-1.33-.08-2.87.55-4.18A98,98,0,0,1,872.74,386,14.43,14.43,0,0,1,879.63,380.3Z"/><path class="cls-17" d="M862.25,493.26c4.94-.61,9.7,1.15,14.61,1.06-.86,3.52,1.92,6.15,2.35,9.45.34,2.58,1.23,5.13,1.16,7.81-.08,3.51-.15,7,2.14,10a4,4,0,0,1,.67,2.38c.19,14.51,5,28.33,6.39,42.66-4.55,20.58-9.47,41.09-13.7,61.75-.48,2.11-1,4.2-1.56,6.3-2,8-3.61,9-12,7-4.16-7-4-14.26-1.62-21.72-1-23.62-2.36-47.23-1.68-70.88C859.59,530.44,860.42,511.82,862.25,493.26Z"/><path class="cls-4" d="M860.73,620c.33,6.07-.15,12.18,1,18.21.21,1.12,0,2.33,1.15,3.09a6.06,6.06,0,0,1,.9,1.12c.6,1.59,1.15,3.19.53,4.92-2.24,3-5.35,4.9-8.26,7.07-1.14.84-2.45,1.87-4,.74-2.76-.86-2.27,3.95-5.12,2.94-3.57-1.07-7.22-.38-10.83-.48-13-.37-26.12.59-39.16-.51h0c-1.12-7.64-.18-15.32-.49-23,.14-3.77-.42-7.62,1.66-11.15,3.49-5.9,9-6.53,15-5.8,14.32-14.85,32.61-12.07,41,6.22.12.26.39.44.74.83Z"/><path class="cls-3" d="M608.64,554l2.19-.07a56.2,56.2,0,0,1,17.55,23.24c.43,1.07.17,2.91,2.24,2.68-4.53,9.85-3.71,18.73,4.15,26.79,4.84,5,2.51,11.26,1.81,17A86.28,86.28,0,0,0,636,633c.44,1.11.83,2.18-1.08,2.07-1.59-3.58-1.63-7.73-4.08-11-1.47-2.78-4.08-4.37-6.63-5.78a79.85,79.85,0,0,1-21.06-17,2.85,2.85,0,0,1-1.45-2.48c-.15-7.9-2.22-15.77.1-23.73,1.58-5.41,3.07-10.87,4.19-16.41A7.27,7.27,0,0,1,608.64,554Z"/><path class="cls-2" d="M846.18,427.91c-1.07,5-2.29,10-3.15,15-.38,2.25-1.26,2.65-3.29,2.23Q814,439.85,788.2,434.62c-1.73-.35-2.65-1-2.19-2.95,1.64-7.22,3.2-14.46,4.79-21.69,5,.08,10,.47,14.58,2.14a373.43,373.43,0,0,0,36.11,11C843.9,423.68,847.18,423.83,846.18,427.91Z"/><path class="cls-18" d="M629.94,393c-3.35-2.53-6.72-5-10-7.61-1.51-1.19-3-1.83-4.93-1.2-.68-3.31,2.89-3.55,4.07-5.59a47.05,47.05,0,0,1,7.9-10.22c1.27-1,2.53-2.08,2.33-4-1.55-13.58-3.59-27.09-4.91-40.68-.35-3.61-3.75-5.48-4.39-8.82,1-1.29,0-2.53-.15-3.76-.47-3.1.34-4.28,3.3-2.2.89-1.46-.28-2.37-.36-3.45-.12-1.73-1.94-4-.26-5,2.1-1.26,4,1,5.41,2.47a47.23,47.23,0,0,1,3.88,5.05c.46,4,1.81,7.81.1,12.16-.9,2.27,1,5.69,1.73,8.54A216.52,216.52,0,0,1,640,359.35a39.5,39.5,0,0,1-1.14,14.72c-1,1.16-.93,2.85-2,4C635.07,383.28,630.7,387.32,629.94,393Z"/><path class="cls-19" d="M846.18,427.91c.33-2.68-1.6-2.64-3.42-3.08-12.9-3.17-25.73-6.55-38.1-11.54-4.39-1.77-9.72-.14-13.86-3.31-1.14-1.32-3.17-2.28-2.51-4.43.47-1.55,2.07-1.37,3.4-1.31,1.29-.13,1.32-1.56,2.21-2.11,3.32-.5,6.62.2,8.65,2.66,2.48,3,5.47,3,8.77,3.35,10.69,1.06,21.2,3.28,31.73,5.32,1.93.37,3.9.54,5.84.81,5.46-.45,9-3.87,12.24-7.82,5.61-3,6.88-2.79,9.7,2.91,1.53,3.08,5.31,5.34,4,9.62l-10.95,6.1c-5,.77-9.74,3.33-15,1.09C847.54,425.6,847,427.25,846.18,427.91Z"/><path class="cls-20" d="M794.82,595l5.9.19a1.64,1.64,0,0,1,.69,1.23c-3.84,7.73-9.31,14.3-14.79,20.87a13.4,13.4,0,0,1-10.21.54c-1.67-1.14-1.28-2.65-.36-3.87,4.91-6.58,9.25-13.61,15-19.55A3.63,3.63,0,0,1,794.82,595Z"/><path class="cls-21" d="M766.86,564h1c1-.38,1.3.28,1.53,1A69.46,69.46,0,0,1,754.15,586c-3.21.49-6.45,1.3-9.4-.88a3.35,3.35,0,0,1,.27-3.75,187.69,187.69,0,0,1,12-16.42,4.1,4.1,0,0,1,2.61-1.33C762.05,563.78,764.51,563.06,766.86,564Z"/><path class="cls-22" d="M809.86,564.13c-.32,1.33-.63,2.66-1,4-1.46,6.88-6.75,11.22-10.8,16.39-3.73,2-7.49,3.15-11.42.49-.21-.45-.52-1-.29-1.41,4.13-7.12,8.18-14.3,14.73-19.59C804.06,563.06,807,562.28,809.86,564.13Z"/><path class="cls-23" d="M770.68,105.57c.22,2.11-1.09,2.6-2.79,2.39-4.19-.54-6.76.49-5.88,5.46.28,1.58,0,3-2.27,2.88s-2.2-1.75-2-3.15c.61-4.15-1-5.78-5.16-5.21-1.67.23-3.8.64-3.76-2.41,0-2.72,1.91-2.43,3.45-2.2,4.36.64,6.2-.91,5.46-5.41-.27-1.6-.43-3.39,2.3-3.29,2.48.09,2.19,1.77,2,3.13-.79,4.8,1.4,6.18,5.79,5.54C769.34,103.07,770.93,103.25,770.68,105.57Z"/><path class="cls-24" d="M710.69,563.68a48.28,48.28,0,0,1,3.36-5.43c5.3-6.54,9.85-5.81,12.89,2,.36.92.69,1.85,1,2.78a1.2,1.2,0,0,1-.34,1.54,4.8,4.8,0,0,1-1.58.71,63.61,63.61,0,0,1-10.51.23C713.73,565.4,711.8,565.63,710.69,563.68Z"/><path class="cls-25" d="M798,583.11l10.93-15c1.76-.08,1.69,1.17,1.64,2.32q-.33,7.31-.7,14.62c-3.54,1.27-7.17.22-10.76.36C797.69,585.48,797,584.54,798,583.11Z"/><path class="cls-26" d="M810.77,600.22a.91.91,0,0,0,.05.77c-.8,4.23-.53,8.51-.3,12.75.16,2.81-.65,4-3.49,3.82s-5.74,1.66-8.73.59c-2.32-.8-1.92-2.43-1-3.9,3.39-5.18,6.54-10.55,11.35-14.63A1.78,1.78,0,0,1,810.77,600.22Z"/><path class="cls-27" d="M710.69,563.68l5.49.44c.7,1.2.19,2.28-.45,3.26-2.79,4.34-6.05,8.35-9.1,12.5-.57.78-1.4,1.48-2.55.91l-.36-7.44c0-.82.11-1.63.13-2.45C704,564.22,704,564.22,710.69,563.68Z"/><path class="cls-28" d="M796.49,617c13.3.71,13.3.71,13.67-12.66,0-1.14-.15-2.34.66-3.33.88,4.85-.43,9.79.67,14.66.24,1.08.67,1.33,1.52,1.47-.46.89-1.28.82-2.11.85-9.57.34-12.94,3.72-13.14,13.19,0,.83,0,1.65-.88,2.07a.6.6,0,0,1-1-.07,1.48,1.48,0,0,0-.89-.26c.16-4.34-1.72-8.84,1.28-13,.38-.52-.31-1.82-.51-2.76l.3-.38Z"/><path class="cls-29" d="M699.94,577.16l-15.42,14.16c.71-2.51.39-6-.42-9.36,1.6,1.8,2.95.37,4.36-.33C692.15,579.81,695.74,577.69,699.94,577.16Z"/><path class="cls-30" d="M798,583.11c-.24,1.91,1,2.18,2.44,2.15l9.43-.19c-.77,1.69-2,1.57-3.65,1.36-3.72-.45-7.54-1-11.2.56a21.05,21.05,0,0,1-6.51.82c-14.89-.49-29.79.28-44.67-.39a4.71,4.71,0,0,1-2.53-.78c-.38-2.46,0-2.79,3.47-2.75,3.13,2.42,6.75.61,10.09,1.16,3.33-2.39,7.23-1.24,10.86-1.79,3.37.46,6.78.18,10.17.36,3.67.32,7.41-.91,11,.52C790.75,585.5,794.52,586,798,583.11Z"/><path class="cls-25" d="M685,405.39c-.19,2.14-1.72,3.71-4.41,3.56a3.85,3.85,0,0,1-3.81-4.31c.09-2.33,1.28-4.22,3.92-4.14S685,401.88,685,405.39Z"/><path class="cls-31" d="M809.86,564.13c-3,.08-6.15-.63-9.06.86-3.7.34-7.39.71-11.11.8-3.29-.39-6.6-.18-9.9-.25-3.63-.44-7.36.93-10.92-.64-.34-.28-.67-.57-1-.86,5.81-2.27,11.93-.85,17.89-1.29,6.64-.49,13.37,1,20-.62A3.25,3.25,0,0,1,809.86,564.13Z"/><path class="cls-32" d="M727.57,563.75a1.08,1.08,0,0,1,.4-.74c11.23,0,22.47,0,33.7.07,1.75,0,3.71-.65,5.19,1l-8.18.09c-3.24,2-6.93,1.23-10.42,1.69-3.93-.75-7.79-.08-11.65.56C733.79,564.86,730,566.65,727.57,563.75Z"/><path class="cls-33" d="M790,587.07c1.63-1.83,3.3-1.87,5-.08l-.18,8-4,.34a1.43,1.43,0,0,1-1.53-.66C788.25,592,787.8,589.41,790,587.07Z"/><path class="cls-34" d="M810.77,600.22l-1.94-.26c-1.4-3.79-5.73-1.63-7.89-3.88a3.71,3.71,0,0,1-.22-.93,28.77,28.77,0,0,0,4.84-.22C810.2,593.94,811.43,596.1,810.77,600.22Z"/><path class="cls-35" d="M793.9,402.13c-.53,1,1.31,2,.2,2.85a1.76,1.76,0,0,1-2.41-.74c.29-1.12.09-2.4,1.09-3.28Z"/><path class="cls-36" d="M614,530.25c-1.14-1.94-1.78-3.8.77-5.18C614.93,526.86,615.13,528.65,614,530.25Z"/><path class="cls-37" d="M636.87,378.05c-.09-1.7.24-3.19,2-4C639,375.79,638.7,377.31,636.87,378.05Z"/><path class="cls-6" d="M222,615.05c-2.16,6.45-8.79,10-10.42,16.51-2.24,0-1.16-2.59-2.14-2.6-1.45-.25-1.54.41-1.46.8a75.06,75.06,0,0,0,2,8.17c1.22,3.49,0,5.35-3.36,6.22a6.2,6.2,0,0,0-2.76,1.1c-4.33,4.37-5.87,2.18-8.23-2.37-4.21-8.1-10.86-14-20.38-15.13-5-.57-5.9-3-5.44-7.2a49.9,49.9,0,0,0,0-5.47c2.15-7.71.47-14.22-5.22-20.1-4.1-4.24-4.43-9.93-3.19-15.52a34.61,34.61,0,0,1,2.8-8.5c5.64-10.92,8.57-22.27,6.73-34.65a17.78,17.78,0,0,1,.77-7.89c3.14-10.11,12.14-12.77,20.23-5.86a22.08,22.08,0,0,1,7.73,17.75c-.11,8.82,2.9,15.69,9.84,21.26,6.71,5.4,9.23,12.82,8.28,21.39-.32,1.06-.37,1.85,1.11,1.09l15.77-15.68c3.21,1.74,7.67.34,10.11,4,2.55,11.65,2.17,23.36.8,35.1-1.61,2.85-3.33,5.59-6.8,6.51-2.78,1.69-5.91.68-8.85,1.14a2,2,0,0,1-.5-1.28c1-2.55,3.6-3.2,5.45-4.73-2.2,1.32-4.26,2.86-6.45,4.2-1.46.9-3.34,2.17-4.26-.78,2.36-8.63,6.56-16.57,9-23.94-1.43,3.51-3.31,8.09-5,12.76-.54,1.51-.89,3.75-2.82,3.58s-1.11-2.41-1.54-3.74A25.2,25.2,0,0,1,223,592c-.41,5.65,1,10.23,1.47,14.9C224.82,610.05,224.42,612.82,222,615.05Z"/><path class="cls-16" d="M244.11,572a52.86,52.86,0,0,0-6.22-.87c-2-.06-3-.79-3.19-2.75,1.25-19.92,1.11-39.87,1.59-59.81.19-7.81.51-15.62.77-23.42,1.85-1.84,4.24-1.74,6.56-1.75q22.47-.08,44.94,0c2.28,0,4.73-.22,6.49,1.82q.88,38.34,1.78,76.67c.21,9.18.18,9.18-8.79,10.32-3.86,2.4-8.21,2.28-12.5,2.44-4.13.16-8.27-.32-12.41-.14C256.67,574.57,250.14,575.17,244.11,572Z"/><path class="cls-3" d="M295.05,485.22c-19.33-.71-38.66,0-58-.08.64-12.06,1.3-24.12,1.91-36.18a174.19,174.19,0,0,0-1.73-36.64c-.5-3.07-.11-6.27-.13-9.42,3.23-.71,3.23,2.21,4.16,3.87,4.62,8.31,12.27,12.74,20.8,11.89,7.26-.73,11.94-5.31,16.05-10.75,1.47-2,2.56-4.41,5.57-4.47,4.05.67,8.49-1.19,12.16,1.87,1.88,8.55.39,16.67-2.23,24.93-3.28,10.32-2.13,21.06-1.15,31.65a146.85,146.85,0,0,0,3.28,20.61A2.43,2.43,0,0,1,295.05,485.22Z"/><path class="cls-16" d="M282.85,404.1c-2.16,2.73-4.26,5.5-6.48,8.17-11.09,13.34-29.75,8.67-36.54-5.52-.65-1.37-.61-3.43-2.72-3.85-.33-4.12-1-8.25-.93-12.37.19-12.17,5.83-22.14,13.16-31.39,2.86-3.62,6-7.21,5.49-12.37,3.17-18.18,21.83-24.72,36.31-12.72,4.19,3.47,5.28,8.51,3.11,13.93-.79,2-2.39,3.65-2.25,6,1.19,6.33-.71,12.43-1.44,18.61-.29,2.45-1,4.85-1.15,7.34-.09,1.67.11,3.33,0,5s0,3.29-.12,4.92C288.54,395.21,287.47,400.46,282.85,404.1Z"/><path class="cls-38" d="M176.49,423c-3.06.73-3.34-1.26-3.07-3.44.44-3.58-1.12-4.86-4.52-4.35-2.45.37-3.58-.35-3.53-3.17s1.37-3.16,3.43-2.82c3.75.62,5.31-.86,4.68-4.59-.42-2.48.6-3.07,3-3.12,2.6-.06,3.41,1.09,3,3.23-.74,4.05,1.22,5,4.69,4.46,2.61-.38,2.94,1.11,3,3.27s-1,3.05-3,2.73c-3.79-.59-5.2,1-4.66,4.71C179.87,422.21,179.08,423.53,176.49,423Z"/><path class="cls-39" d="M109.09,480.28c-7.42,0-13.62-5.92-13.58-13A13.26,13.26,0,0,1,108.7,453.9c7.72,0,13.29,5.41,13.42,13A12.84,12.84,0,0,1,109.09,480.28Z"/><path class="cls-40" d="M216,241.07c-.17,2.55-1.72,3.94-4.45,4s-4-1.65-4-4,1.12-4.11,3.86-4.2S215.72,238,216,241.07Z"/><path class="cls-41" d="M218.93,584.05c-.25.92-1.12,2.34-1.46,2.07-1.2-1-.4-2.15.35-3.16Z"/><path class="cls-4" d="M405.61,629.11a26.86,26.86,0,0,0-20.8,6.6c-3.15,2.7-5.84,2.69-8.73,0A33.21,33.21,0,0,0,359,627c-.94-.71-2.4-.42-3.14-1.27-2.6-3-5.65-2.53-8.86-1.45-1.15-8.74-7.24-15.28-15.84-14.32-.94.1-2.47,0-2.79-.49-2.33-3.92-7-5.43-9.37-9.23,3.44-2,8.44-3.27,9.87-6.25,1.51-3.14-2.61-7-4-10.67a102.76,102.76,0,0,1-6.72-28c-.24-2.51-.81-3.76-3.49-3.12a2.09,2.09,0,0,1-.5,0c-3.3-.2-7.69,2.14-9.58,0-2.23-2.47-.7-7-.7-10.65,0-7.85,1.48-15.54,3.19-23.18.59-2.62,1.38-3.42,4.36-2.59,9.63,2.69,9.71,2.53,13.42-6.73a92.23,92.23,0,0,1,15.27-25.61c1.8-2.12,2.37-3.33-.17-5.54-8.46-7.33-8.29-7.39.06-14.93A145.15,145.15,0,0,1,358.71,449c2.38-1.54,3.68-1.37,5,1.31,1.42,3,2.69,7.09,5.17,8.23s5.88-2.2,8.9-3.48a98.11,98.11,0,0,1,28.87-7.42c3.38-.32,4.43-1.35,4-4.91-1.07-9.63-.89-9.66,8.87-9.61,8.36,0,16.53,1.55,24.68,3.26,2.79.58,3.71,1.54,2.78,4.66-2.8,9.4-2.63,9.44,6.37,13a95.16,95.16,0,0,1,26.09,15.42c2.13,1.78,3.26,2.33,5.43-.16,7.08-8.12,7.22-8,14.85,0a125,125,0,0,1,14.15,18.68c1.78,2.73,1,3.86-1.6,5.29-8.38,4.69-8.28,4.77-4.62,13.38,3.86,9.08,6.7,18.47,7.43,28.34.28,3.78,1.24,5.45,5.58,5.06,9.53-.87,9.4-.61,9.31,9.33-.05,5.66-1.66,11.08-1.88,16.69-.81,1.46-2.29,1.79-3.73,2.2-13.45,3.81-19.26,10.69-20.7,24.49a21.12,21.12,0,0,1-.49,3.95,6.53,6.53,0,0,1-3.55,4.2c-5,.81-9.9-.48-14.88-.48a49.14,49.14,0,0,0-26.91,7.8c-1.68,1.06-3.28,2.33-5.42,2.31-3.32-1.22-3.49-4.49-4.65-7.12-1.83-6.29-1.91-6.4,3.52-10.26,28-19.84,32.31-62.3,7.21-87.79-9.65-9.81-21.67-15.31-35.74-17.13-30.08-3.89-65.16,20.46-64.4,59.64.55,28,22.12,52.07,49.84,55.92,2.15.3,4.31.54,6,2.08,1.6,4.23-1.68,7.44-2.33,11.21C409.49,620.91,409.86,626.21,405.61,629.11Z"/><path class="cls-3" d="M452,610.2c11.46-8.54,24.27-12.44,38.56-11.16,3.11.28,6.21.67,9.31,1,2.54-.18,2.74-1.8,2.33-3.79-.49-15.8,8.46-28.52,25.9-30.24,5.72,2.07,9.87.46,13.15-4.77,1.52-2.43,4.2-4.12,6.35-6.15,1.73,1,1.8,2.73,1.82,4.36.08,7.8.48,15.58-1.25,23.32a190.43,190.43,0,0,0-4.56,43.49c0,5.92.2,12,2.27,17.65a2.2,2.2,0,0,1-.75,3c-3.45,2.51-6.21,5.89-9.89,7.76,3.19.79,7.22-1.74,9.93,2.18a1.51,1.51,0,0,1-1.49.66q-26.19,0-52.35,0c-1.79,0-3.66.46-5.38-.47-2.17-1.19-2.26.85-3,1.91l-2.39,0c-.28-.6-.15.22-.25-.42-.95-6.13-4.45-8.18-10.45-7.09-3.33.6-5.2-1.67-6.19-4.61-1.43-4.26-3.06-8.44-4.64-12.64a167.15,167.15,0,0,0-6.19-16.79C452.41,615,450.38,612.83,452,610.2Z"/><path class="cls-18" d="M282.85,404.1c1.95-4.58,4.68-8.87,5.25-14,1.63-1.58,1.14-3.16,0-4.75l0-5.35c4.37-.82,6.6-3.63,7.84-7.76a72.58,72.58,0,0,1,4.46-11.52c.86-1.73,1.43-3.76,3.59-4.47,6.32,1,6.3,1,5.16,7.12S307,375.85,305.68,382c-.6,2.76,0,3.07,2.59,2.58,9.16-1.74,18.35-3.3,27.7-3.58,1.32,0,2.49-.12,2.94-1.94,3.85-15.89,12.27-29.73,20-43.84a6.45,6.45,0,0,0,.87-5.13c-1-3.72-.11-7.29,1.47-10.66.66-1.4,1-3.65,3.16-3.27,1.86.32,1,2.57,1.86,4.25,1.1-2.2,2-4.21,3.08-6.07.79-1.31,1.13-3.67,3.27-3.12,1.82.47,1.85,2.63,2.09,4.21.73,4.61.12,9.17-2.62,12.91-3.53,4.83-5.1,10.36-6.92,15.86-4.59,13.91-10,27.47-17.27,40.23-1.3,2.3-3.42,3.58-5.62,4.77-11.47,6.22-23.8,10.2-36.24,13.87-1.74.52-3.62.66-5,2-1.77-.75-3.45.28-5.19.26C291.51,404.94,287,406.39,282.85,404.1Z"/><path class="cls-18" d="M545.52,645.34c-2.15-.67-2.37-2.41-2.58-4.32a176.68,176.68,0,0,1,3.12-55.76c2.09-10,1.46-20.09,1.51-30.16a7.49,7.49,0,0,0,.24-.9l19.22-.11c1.44,1.72,1.33,3.72.93,5.7-5.21,25.94-7.77,52.35-14,78.1-.65,2.71-.87,5.64-3.15,7.71A4.66,4.66,0,0,1,545.52,645.34Z"/><path class="cls-18" d="M263,573.25l25.08-1q0,15.9-.08,31.8l-2,35a7.18,7.18,0,0,1-1.65,8.29,3.52,3.52,0,0,1-1.62.39c-4.58,0-8.57-.85-9.2-6.48a252.45,252.45,0,0,1-4.94-28.38c-.31-10.52-1.7-21-1.13-31.55.17-3.16-.87-5.43-4-6.52A1.15,1.15,0,0,1,263,573.25Z"/><path class="cls-18" d="M550,385c-3,3-6,6-9.13,8.88a5.93,5.93,0,0,0-2.1,4.26c-1.38-7.19-6.62-12.37-9.72-18.67a34.74,34.74,0,0,1-3.43-22.1c2.2-12.58,4.3-25.12,9-37.11.87-2.22.47-4.92.65-7.4L544,317c.25.44.61,1.14.33,1.38-5.82,4.91-4,12-4.68,18.08q-1.2,11.18-3.12,22.18c-.73,4.2-.09,7.68,3,11a85.75,85.75,0,0,1,8.54,11C549,381.92,550.39,383.07,550,385Z"/><path class="cls-42" d="M433.11,184.65c-.11,6.86-5.18,11.74-12.12,11.68a11.87,11.87,0,0,1-12-11.94,12.32,12.32,0,0,1,12.31-12.3C428.27,172.18,433.23,177.43,433.11,184.65Z"/><path class="cls-43" d="M475.69,278.83c-.36,2.2-1.44,3.69-3.82,3.73s-3.82-1.16-3.89-3.48c-.08-2.53,1.35-3.94,3.94-4S475.25,276.77,475.69,278.83Z"/><path class="cls-2" d="M888.76,567.31c-2.3-8.32-2.91-17-5-25.33-1.57-6.12-.07-13-2.3-18.2-3.66-8.59-1.46-17.88-5.17-26-.84-1.84,1-2.22.62-3.41,13.61.25,27.23.25,40.83-.47,0,40.14.66,80.28-2.62,120.35-.22,2.65-.28,5.32-.42,8a42.58,42.58,0,0,1-.3,16.53c-.45,2-.93,3.87-3.24,4.48a19.07,19.07,0,0,1-8.1-.07c-2.79-1-3.42-3.37-3.91-5.85-.94-4.71-1.59-9.47-2.49-14.18-2.34-15.38-5.37-30.65-7.82-46C888.27,573.82,887.6,570.57,888.76,567.31Z"/><path class="cls-3" d="M914.27,659.2c-1.15,0-2.31-.13-3.47-.2-.21-3.66.44-7.39-.67-11-.68-2-.92-4,.8-5.67,2.29-.51,1.83-2.39,2-4,.56-5.39,1.15-10.78,1.72-16.17a2,2,0,0,0,2.47,1.79c9.77-1.1,15.66,4,19.7,13.14,2.1-5.31,5.15-8.52,10.72-8.09,1.27.1,1.92-1.17,2.76-2,8.73-8.11,20.64-6.63,26.75,3.44,1.17,1.93,1.88,3.2,4.46,1.65,3.92-2.35,7.81-1.67,10.75,1.83,1.58,1.87,2.63,1.7,4.52.55,6-3.63,12.08-3.41,17.7.81,1.69,1.27,2.71,1,4.38.19,7.83-3.83,13.82-2.34,18.24,5.23,2.26,3.87,6-.23,8.2,2.53,1.61,2,1.65,6.28,6.58,4.14,3.17-1.37,6.49.6,8.85,3.25,1.75,2,2.85,4.41,2,6.9-.94,2.85-3.74,1.42-5.66,1.43Z"/><path class="cls-44" d="M866.87,343.13c-4-4.36-4-10.64-.09-17,2.4,3.44,6.22,3.47,9.77,3.87a84.13,84.13,0,0,1,19.79,4.47c7,2.6,9.34,7.1,7.79,14.41-1.19,5.65-4.15,10.37-7.47,14.94-7.4.76-11.35-3.22-10.1-10.17.23-1.26,1-2.76-.56-3.54-1.29-.66-2,.73-2.84,1.45-4.17,3.57-5.82,3.12-6.57-2.16-.46-3.22-2-4.7-5.08-4.89C869.87,344.39,868.18,344.4,866.87,343.13Z"/><path class="cls-19" d="M866.87,343.13c1.49-.06,3-.15,4.48-.18,4.44-.11,7,1.66,6.55,6.52-.1,1.21-.83,2.9.74,3.57,1.85.78,2.49-1.12,3.44-2.17.44-.49.77-1.1,1.25-1.55,1-.95,1.8-2.7,3.66-1.48a3.6,3.6,0,0,1,1.63,3.9c-.58,2.83-3.81,5.56-.09,8.47,2.43,1.9,5.34,2.58,8.13,3.59.88,4.45-.29,9.4,3.23,13.21-6.66-2.52-12.7,0-18.77,2.28,0-3.54-.54-5.35-5.22-4.41-6.45,1.29-10.8-2.92-11.14-9.54A70.5,70.5,0,0,1,866.87,343.13Z"/><path class="cls-45" d="M976,469.51c-1.89-.14-1.24-2.1-1.07-3.34.58-4.28-.83-6.22-5.37-5.5-1.5.23-3.67.58-3.6-2.06.06-2.43,2.17-1.75,3.4-1.62,4.1.45,6.39-.53,5.6-5.3-.21-1.29-1-3.72,1.82-3.68,2.63,0,2.16,2.31,1.93,3.73-.8,4.78,1.55,5.73,5.62,5.27,1.28-.14,3.34-.67,3.33,1.73s-1.83,2-3.3,1.85c-4.58-.54-6.3,1.45-5.62,5.93C978.92,468,978.8,469.65,976,469.51Z"/><path class="cls-3" d="M903.84,659.22l7-.23a1.47,1.47,0,0,1-.18.92C908.39,659.52,906,660.23,903.84,659.22Z"/><path class="cls-1" d="M596.08,109.83c1,9.93.65,19.9.87,29.85q1.09,48.87,2.1,97.74a41.81,41.81,0,0,1-3,16.56c-2.73,6.83-7.61,10.85-15.06,11.06s-12.54-3.71-15.59-10.34c-4.21-9.18-4.24-19-4.49-28.83q-1.07-41.9-2-83.78a19.24,19.24,0,0,1,.15-2c1.22-1.77,3.17-2.33,5-3a157.68,157.68,0,0,0,26.46-12.86,7.29,7.29,0,0,0,4-6.88C594.6,114.8,593.72,112,596.08,109.83Z"/><path class="cls-1" d="M550,385c-5-5.74-8.92-12.35-14.29-17.81-2.5-2.55-.93-5.87-.48-8.59,1.93-11.44,3.67-22.89,3.73-34.52,0-2.1.73-3.49,2.67-4.29,1.26-.53,2.38-1.24,2.45-2.83a116,116,0,0,0,63.25,2.11c4.32-1.05,8.48-2.74,12.72-4.13,5.8,2.94,5.84,8.38,6.4,13.86,1.28,12.44,3,24.85,4.46,37.26a8.79,8.79,0,0,0-3,3c-4.75,4.66-7.44,11.08-12.9,15.13-.08.15-.15.3-.22.44-2.77,5.29-6.36,7.15-12,3.69-2.49-1.53-5.68-1.58-8.69-1.11a4.33,4.33,0,0,1-2.85-6.93,6.88,6.88,0,0,1,3.26-2c7.21-1.65,7.21-1.65,9.66,4.2,7.53-10.43,6.38-21.49,4-33-2.68-12.94-19.85-22.71-32.19-18.31-7.48,2.67-12.6,7.17-14.8,14.81-3.38,11.81-1.73,23.34,1.91,34.8.8,2.53,2.83,5.09.84,8C559.34,391,555.31,391,552.5,386A2.4,2.4,0,0,0,550,385Z"/><path class="cls-46" d="M596.08,109.83a1.26,1.26,0,0,0-.1.49c3,13.16-6.79,16.8-15.69,21.18-6.87,3.38-13.78,6.64-21.22,8.6-.44-18.58-1-37.17-1.25-55.76-.09-7.66.78-15.23,6.3-21.41,6.44-7.22,19.71-6.54,25.39,1.31,4.93,6.81,5.8,14.71,6.18,22.68C596.05,94.55,596,102.19,596.08,109.83Z"/><path class="cls-1" d="M343,186.35c-6.92,36.18-13.76,71.93-20.59,107.69-.87,4.56-1.73,9.14-2.5,13.72-.38,2.32-1,3.36-3.86,2.76-12.7-2.64-25.47-5-38.23-7.31-2.44-.45-3.71-.71-2-3.63Q309,243.25,342,186.82C342.08,186.7,342.3,186.67,343,186.35Z"/><path class="cls-1" d="M304,356.28a112.76,112.76,0,0,0-7.89,19.24c-1.37,4.54-3.92,5.52-8,4.51Q290.06,367,292,354Z"/><path class="cls-1" d="M834,197.31q-5.78,28.8-11.56,57.62c-3.86,19-8,38-11.51,57.12-1,5.25-3,5.64-7.47,4.62-12.63-2.86-25.35-5.31-38.06-7.92-.54-1.08.25-1.89.72-2.67Q799,251.68,832,197.3a11.37,11.37,0,0,1,.91-1.19C833.82,196,834.42,196.15,834,197.31Z"/><path class="cls-1" d="M879.63,380.3,873.84,386c-3.13,2.47-6.92,2.27-10.58,2.64-1.76-.2-3.08,1.22-4.72,1.33-1.92.12-4.25.52-3.86-2.74,1.47-11.78,1.47-11.77,12.73-9.42C871.47,378.7,875.55,379.48,879.63,380.3Z"/><path class="cls-47" d="M854.68,387.27c1.07,2.68,3.09,2.22,4.8,1.09,1.18-.77,2.13-1.47,3.55-1a54.21,54.21,0,0,0-3.76,19.33c-1,1.61-2.21.88-3.16,0-1.46-1.33-3.41-1.66-5-2.73Q852.9,395.61,854.68,387.27Z"/><path class="cls-1" d="M851.13,403.93c3.5-1.28,5.26,1.92,7.83,3.05a1.31,1.31,0,0,1,1.87.15c-1.29,4.85-7.34,8.47-11.94,7.14Q850,409.1,851.13,403.93Z"/><path class="cls-48" d="M834,197.31l-1.12-1.2a3.88,3.88,0,0,1,1.67-2.69A3.49,3.49,0,0,1,834,197.31Z"/><path class="cls-18" d="M263,573.25l.11,1c1.43,1.42,1.49,3.29,1.49,5.1,0,11.08.29,22.16-.13,33.24-1.05,9.17-.78,18.43-2.11,27.58-.79,5.52-1.77,6.57-6.84,7.22A5,5,0,0,1,252,646.3c-3.5-9.5-4.63-19.5-6.16-29.41a13.83,13.83,0,0,1-1.5-8.94,211.37,211.37,0,0,0-.1-33c-.07-1-.08-2-.12-3Z"/><path class="cls-12" d="M252,646.3l3.41.23c3.48-.33,6.6.21,8.45,3.66,1.54,3.55,6.32,4.5,7,8.73A99.1,99.1,0,0,1,251,659c-1.38-3.47-.17-6.7.91-9.94C251.94,648.11,252,647.2,252,646.3Z"/><path class="cls-49" d="M222,615.05c3.07-7.71-.18-15.3-.51-22.94-.05-1.23-1-2.5.8-3.79,2.67,5,1.36,10.72,3.36,16.57L234,584.13l1.62.66q-5.44,14.16-10.87,28.32c-.35.62,0,1.54-.85,1.95Z"/><path class="cls-50" d="M223.94,615.06l.85-1.95c3,1,4.2-1.91,6.32-2.83,2.45-1.06,4.18-3.59,7.88-3.93-2.31,4.13-6.53,4.93-9.1,7.63-.53.81-1.54,1.18-1.92,2.12C226.07,617.94,225,616.66,223.94,615.06Z"/><path class="cls-51" d="M251.91,649c-.18,3.33.64,6.74-.91,9.94l-5.1.1C245.72,654.39,249.79,652.29,251.91,649Z"/><path class="cls-52" d="M244.33,608a15.76,15.76,0,0,1,1.5,8.94c-2.23-1.22-5.09-.91-7-2.88Z"/><path class="cls-53" d="M228,616.1c-.85-2.06.94-1.72,1.92-2.12,0,.39,0,.78.07,1.17Z"/><path class="cls-54" d="M658.55,600.42c5.22-6.21,7.31-13.22,12.47-18.08-1.12,5-3.75,9.42-6.69,13.35-4.86,6.51-5.21,13.18-4,20.94,1.35,8.6,2.89,17.32,2.17,26.2-2.4-3.8-1.8-8.3-2.38-12.42-.46-3.29-1.47-4.9-4.48-6.16-3.25-1.35-6.89-2.18-10.53-5.35,4.52-.23,7.08,2.05,10,3.11,2.53.92,4.19,1.1,3.76-2.45q-1.59-13.3-3-26.63c-.25-2.28-2-2.89-3.61-3.68a135.29,135.29,0,0,1-13.87-7.34c4-.49,6.81,2.22,10.16,3.41,2,.7,4,3.25,5.78,1.92s.15-4-.1-6.12c-1.13-9.47-2.08-19-2.38-28.53C655.35,568,656.28,583.76,658.55,600.42Z"/><path class="cls-55" d="M704.75,616.88c-12.57,4.19-18.58,13.84-22,25.91A54.76,54.76,0,0,1,677,655.5c2.62-6.89-1.31-12.87-2.73-20.53,3.84,3.41,3,7.41,5.41,10.41,3.48-8.84,7.57-17.35,10.09-26.3,1.79-6.33-.84-13.08-1.29-19.66-.09-1.27-.84-2.51.82-3.89,2.25,5.48,1.45,11.2,3.11,16.9,3.44-6.71,5-14,8.71-20.28l1.29.52c-3.65,9.56-7.29,19.11-11.47,30.05l12.86-8.66C704.86,614.73,705.39,615.6,704.75,616.88Z"/><path class="cls-21" d="M704.75,616.88l-1-2.82c.11-.58.21-1.16.31-1.74a62.75,62.75,0,0,1,12.89-18,7,7,0,0,1,2.2-.57,35.62,35.62,0,0,1,4.62-.06,5.68,5.68,0,0,1,2.93.82,2.05,2.05,0,0,1,.51,2.68c-4.49,7-8.34,14.49-15.08,19.76l-6.13.28Z"/><path class="cls-56" d="M727.57,563.75c2.24.07,4.47.21,6.71.19,1.44,0,2.57.17,2.45,2-1.17,4.85-5.1,8-7.55,12-1.52,2.53-3.92,4.52-4.73,7.51a2,2,0,0,1-.86,1,17.23,17.23,0,0,1-4.65.19,1.69,1.69,0,0,1-1-.76c-2.19-1-4.43.09-6.64-.18a1.22,1.22,0,0,1,0-1.39c5.18-6.86,9.35-14.5,15.74-20.43A.76.76,0,0,1,727.57,563.75Z"/><path class="cls-22" d="M727,563.94c-4.61,7.73-10.18,14.76-15.71,21.82-3.24-.44-8.33,1.81-7.19-5a132.87,132.87,0,0,0,12.1-16.67Z"/><path class="cls-57" d="M716.82,595.34l-12.75,17c-.06-3.66.15-7.35-.25-11-.54-5,1.64-6.64,6.28-6.2a27.94,27.94,0,0,0,4-.2C715.09,594.4,716.07,594.1,716.82,595.34Z"/><path class="cls-58" d="M716.82,595.34l-2.75-.4,3.84-9,1.25,0a7.77,7.77,0,0,1-.18,8.94Z"/><path class="cls-59" d="M634.9,635c.84-.45,1-1.26,1.08-2.07,1.27,1.92,1.35,4.11,1.87,6.61C635.55,638.48,635.22,636.76,634.9,635Z"/><path class="cls-60" d="M681.14,609.73v-7.62h.51v7.71Z"/><path class="cls-6" d="M283.85,646.88c1.88-2.31.86-5.4,2.1-7.88,2.41.25,3.82-.09,4.21-3.21.58-4.68,3.2-8.07,8.58-7.77,2.28.13,3.65-1,5.14-2.47,9.19-8.74,21.85-6.86,27.91,4.27,1.23,2.26,1.87,2.63,4.26,1.26,4-2.3,8.28-2.57,11.4,1.85,1.69,2.41,3.19,1.26,5,.18,5.13-3,10.47-2.86,15.72-.41,7.22,3.37,9.13,8.8,5.64,15.68A46.27,46.27,0,0,0,370,659.13l-3.11-.13c-1.73-.89-3.59-.44-5.38-.45-17.76,0-35.52,0-53.27,0a20.68,20.68,0,0,1-5.93-.36C294.62,657,288.78,652.65,283.85,646.88Z"/><path class="cls-61" d="M460,633.75c1.67,4.28,3.54,8.5,4.94,12.86,1,3,2.53,4.47,5.74,3.82a6.52,6.52,0,0,1,1,0c8.53-.1,8.53-.1,8.88,8.57q-39.14.13-78.29.28c-6,0-12-.09-17.94-.14a33.34,33.34,0,0,0-.25-3.46c-.71-4.31,1.44-5.61,5.32-5.17.33,0,.66.06,1,.11,5.78.95,9.23-1.14,10.44-7.18.72-3.53,2.39-6.86,3.63-10.28a21.25,21.25,0,0,1,6.4-.79c14,0,28,0,41.94,0C455.27,632.38,457.81,632.17,460,633.75Z"/><path class="cls-62" d="M460,633.75q-26.37.09-52.75.13a11.24,11.24,0,0,1-2.81-.74l1.17-4,4.89-12a14.2,14.2,0,0,1,7.12-1.71c10.06,0,20.12-.06,30.19,0,2.22,0,4.73-.38,6.17,2.11A75.72,75.72,0,0,1,460,633.75Z"/><path class="cls-63" d="M347,624.31c4.27-3.95,4.27-3.95,12,2.72-3.09.15-6.23-.34-9.24.63C345.86,628.91,346.09,626.92,347,624.31Z"/><path class="cls-64" d="M775.72,617.06c3.71-.19,7.54,1.11,11.09-.94,1,0,1.87.1,2.29,1.15.65,4.94,2.13,9.83.87,14.88-9.41.23-16.8,4.4-21,12.68-2.39,4.75-4.44,5.33-8.24,2.23-1.65-1.21-1.83-2.91-1.81-4.81.09-8.27.07-16.54.1-24.81,1.44-2.27,3.76-1.8,5.9-1.89C768.55,615.94,772.43,614.39,775.72,617.06Z"/><path class="cls-65" d="M724.39,617.32l-1.58-.24c-.86-1.14-.44-2.21.22-3.21,4.18-6.37,9-12.27,13.45-18.44a4.23,4.23,0,0,1,2.07-1.33,15.67,15.67,0,0,1,8.77.2c1.66,1.07,1.48,2.69.63,3.93-4.49,6.53-8.27,13.64-14.53,18.81Z"/><path class="cls-20" d="M733.42,617l14.94-21.75a2.84,2.84,0,0,1,2-1.37c2.69-.34,5.38-.56,8,.38a2.15,2.15,0,0,1,1,1.12,2.44,2.44,0,0,1-.19,1.9c-4.84,6.8-9.26,13.92-15.33,19.77Z"/><path class="cls-66" d="M743.84,617.09c4.35-7.48,9.95-14.06,15-21.05,2.09-1.87,4.67-1.2,7.08-1.42,1.3,0,2.69-.32,3.51,1.14a3,3,0,0,1-.26,2.84c-4.74,6.26-8.52,13.26-14.61,18.44Z"/><path class="cls-67" d="M754.53,617c4.27-6,8.52-12.12,12.81-18.16.67-.94,1.55-1.73,1.52-3,3.36-3.46,7.12-2.66,10.95-1a2.2,2.2,0,0,1,.17,2.76c-4.91,6.55-8.65,14-15,19.49l-6,.35Z"/><path class="cls-3" d="M550.72,645.16c7.33-28.33,10.06-57.5,15.92-86.1a38.88,38.88,0,0,0,.39-5l19.2,0c1.57,2,2.27,4.06-.16,6-2.36,6.43-.59,13-.89,19.53-.35,7.44.54,14.9-1.69,22.37-1.41,4.72-1.72,10.19.54,15,.85,1.82,1.49,4,.73,5.21-3.5,5.8,1.28,11.75-1.24,17.47,2.37,0,.51-2.42,2-2.55,1.74,7,.59,13.56-2.59,19.88a304.78,304.78,0,0,1-38,0v-.82c3.16-1.72,5.22-4,4.68-8A3.94,3.94,0,0,1,550.72,645.16Z"/><path class="cls-18" d="M586.07,560.1c.68-2,.28-4,.15-6l22.43-.11c-1.83,7.37-3.55,14.77-5.52,22.11-2.26,8.41.35,16.76,0,25.14q-.71,7.95-1.4,15.89-2.75,12-5.48,24.05c-.71,3.13-1.74,5.46-5.86,5-4.31-.46-3.3-3.55-3.38-5.91-.26-7.77-.26-15.56-.36-23.34a103.28,103.28,0,0,1,0-15.83C587.35,587.44,585.85,573.79,586.07,560.1Z"/><path class="cls-68" d="M594.88,658.94c-3.61.23-7.22.69-10.83-.07.25-3.88,3.28-6.74,3.82-10.59.33-2.4,2.67-1.13,4.13-1.41,1.67-.31,2.41.57,2.47,2.2C594.59,652.36,594.74,655.65,594.88,658.94Z"/><path class="cls-69" d="M544.91,657.05h38c-1.31,1.5-3.08,1-4.67,1q-43.83,0-87.64,0c-1.59,0-3.36.53-4.67-1Z"/><path class="cls-3" d="M586.67,601.13q0,7.92,0,15.83A35,35,0,0,1,586.67,601.13Z"/><path class="cls-27" d="M737.71,595.37c-4.45,7.59-10.83,13.85-14.9,21.71l-5,.4-5.66-.49c4.64-7.43,10.82-13.81,14.84-21.66C730.57,592.66,734.14,592.59,737.71,595.37Z"/><path class="cls-70" d="M622.9,628.05l-1.12,1.13c-1.61-1.56-3.28-3.09-3.29-5.57,0-.13.57-.45.79-.39C621.68,623.91,621.78,626.36,622.9,628.05Z"/><path class="cls-71" d="M283.85,646.88C289.71,650,294.32,655.27,301,657a1.29,1.29,0,0,1-.1,1.94H276a5.27,5.27,0,0,1-1.37-2.54c-1.84-7.89.36-10.37,8.43-9.56A1.81,1.81,0,0,1,283.85,646.88Z"/><path class="cls-72" d="M283.05,646.86c-7.09.59-7.09.59-7.09,7.7,0,1.47,0,2.94,0,4.4a10.36,10.36,0,0,1-5.13,0c-2.28-3-6.31-4.23-7.73-8a9,9,0,0,0,4.73-4c1.58-2.57,3.06-5.61,6.84-5.67C275,646.68,279.5,646.11,283.05,646.86Z"/><path class="cls-73" d="M300.9,659c0-.65.07-1.29.1-1.94a25,25,0,0,0,7.84,1.05q26.43-.09,52.88,0c1.75,0,3.7-.63,5.2.93C344.91,659.36,322.9,659.43,300.9,659Z"/><path class="cls-74" d="M970.71,170.83A10.87,10.87,0,0,1,960,181.6a10.73,10.73,0,1,1-.1-21.46A11,11,0,0,1,970.71,170.83Z"/><path class="cls-75" d="M789.1,617.27l-2.29-1.16,14.13-20a39.18,39.18,0,0,0,5-.07c3.54-.48,3.92,1.18,2.92,4q-6.17,8.52-12.34,17a.88.88,0,0,0-.74.2Z"/><path class="cls-4" d="M897.83,623c1,5.1,2.08,10.17,3,15.29.29,1.68.45,3.25,2.27,4,1.3,1.8,2.11,3.67.84,5.84l-2,2c-1.58,1.09-3.18,2.16-4,4a12,12,0,0,1-5.86,3,52.75,52.75,0,0,1-22.27-.08c-2.23-2.75-.64-6.38-2.16-9.29,1-4-2.39-4.37-4.68-5.66,0-.27,0-.55,0-.82,8.28-.67,8.21-.69,10.44-8.85.42-1.51.06-3.44,1.79-4.46C879.7,620.65,892,618,897.83,623Z"/><path class="cls-76" d="M903.9,648.08c-.44-1.93-1.35-3.78-.84-5.84l7.87.08c-.06,1.93.42,3.92-.8,5.68Z"/><path class="cls-77" d="M897.87,654.06c-.1-2.77,1.88-3.46,4-4A9.61,9.61,0,0,1,897.87,654.06Z"/><path class="cls-78" d="M867.89,646.91c3.92,2.76.94,6.8,1.86,10.11-5.46,2-11.09.71-16.64.82-1.8,0-2.12-1.25-1.13-2.74,4.84-1.51,7.69-5.92,12-8.22A2.84,2.84,0,0,1,867.89,646.91Z"/><path class="cls-79" d="M796.87,657.05c14.94,0,29.87,0,44.81,0,1.75,0,3.7-.64,5.18,1-14.94,0-29.88,0-44.82,0C800.29,658,798.34,658.66,796.87,657.05Z"/><path class="cls-79" d="M795.87,633.16l1,.07q0,11.91,0,23.82c-2.15-4-.67-8.36-1-12.54C795.66,640.75,795.87,637,795.87,633.16Z"/><path class="cls-2" d="M563.89,388.78c-3.06-10.84-6.41-21.56-5.88-33.12.84-18.7,13.18-29.62,30.57-26.58a17.65,17.65,0,0,1,6,2.22c8.94,5.31,14.78,12.55,16.19,23.33,1.5,11.49.42,22.05-8.14,32.09.07-6.26-1.46-10-7.8-7.42-.56-1.94-.71-2.11.5-3.19,3.35-3,3.88-6.66,3.12-10.9-.9-5.07-1.67-10.17-2.08-15.31-.2-2.47-1.2-3.21-3.58-2.15-5.34,2.36-11,3.83-16.54,5.56s-6.77,3.61-7,9.47c-.11,3,0,6,0,9,.8,3.69,1.25,7.36-.3,11-.26,2.06-1.74,3.42-2.86,5C565.7,388.74,565.53,390.37,563.89,388.78Z"/><path class="cls-18" d="M568,372c-.24-21.17-1.05-16.7,15.9-22.43a66.16,66.16,0,0,0,13-5.35c1.27,8.91,2.59,17.46,3.64,26.05.31,2.5-2,4-3.3,5.9-.73,1.07-3.08,1-2.3,3.09-4.18,2.08-4.46,4.77-.82,7.94-5,6.12-14,5.66-19.34-1,.28-1.46,1.61-2.66,1-4.32C573.47,378.37,569,376.57,568,372Z"/><path class="cls-80" d="M576.89,382.06c.43,2,.46,3.78-2.17,4.2l-8.56,1.49c.26-1.66.51-3.33,1.77-4.61C570.73,381.21,573.63,380.12,576.89,382.06Z"/><path class="cls-81" d="M860.83,407.13,859,407c-2.11-5,.26-16.39,4.07-19.66L873.84,386c-2.08,5-5.7,9.2-7.59,15,5.55-.84,9.48-4.38,14-6.39,4.06-1.8,8.14-3.44,12.3-5,4.41-1.64,7.49.33,10,3.3s1.17,6.42-.55,9.27c-2,3.28-5.07,5.69-8.2,7.8-4.77,3.22-9.76,6.11-14.64,9.17-1.55,1-3,1.43-4.39-.21-2.13-3.84-4.29-7.66-6.36-11.53C866,403,863.33,408.05,860.83,407.13Z"/><path class="cls-82" d="M897.83,623c-8.55-2.8-15.94-.3-22.74,5-.57-5.44,1.69-10.4,2.77-15.54,2.92-13.94,6.09-27.83,9.25-41.72.26-1.18.15-2.72,1.65-3.37q4.32,25.63,8.64,51.26C897.64,620,897.69,621.51,897.83,623Z"/><path class="cls-83" d="M867.89,646.91l-3.91,0-1.08-4.81a16.18,16.18,0,0,1,1.93-.32C870.4,641.56,870.58,641.87,867.89,646.91Z"/><path class="cls-84" d="M627.9,369.09a2.89,2.89,0,0,1,3-3A5.58,5.58,0,0,1,627.9,369.09Z"/><path class="cls-65" d="M765,617.09c4.43-7.43,9.85-14.14,15-21.08,3.1-3,6.65-1.86,10.16-1.12a.74.74,0,0,1,.66.4c-4.17,6.92-9.27,13.18-14.09,19.63a11,11,0,0,0-1,2.14Z"/><path class="cls-85" d="M747.79,564.87c3.53-1.75,7.25-.69,10.89-.74l-13.92,19.76-3.71,1.73c-2.15,2.3-4.39.7-6.6.17a2,2,0,0,1-.53-3C738,576.37,741.87,569.81,747.79,564.87Z"/><path class="cls-20" d="M768.87,564.9c3.52-1.85,7.27-.68,10.93-.78a2.43,2.43,0,0,1-.42,2.74c-4.24,5.93-7.69,12.5-13.56,17.14-3.48,2.25-7.28,1-11,1Z"/><path class="cls-86" d="M789.91,565c3.62-1.43,7.25-1.95,10.89,0l-13.9,19.15c-3.54,2-7.32,1-11,.91-.35-.39-.7-1-.45-1.33C780,577.32,783.69,570.18,789.91,565Z"/><path class="cls-87" d="M790.14,594.89c-3.21,1.91-6.9-.44-10.16,1.12-3.68-1.56-7.4-1.07-11.12-.14-.72-.8-1.33,0-2,.15-2.67-1.22-5.59.17-8.28-.81l-8.51-.31c-3.12-2.32-6.43-4.48-7.27-8.71l44-.12c1.18,0,2.34,0,3.21,1Q790.06,591,790.14,594.89Z"/><path class="cls-66" d="M789.91,565l-14,20c-3.34-.48-6.89,1.11-10-1l14-19.88C783.17,564.43,786.68,563.13,789.91,565Z"/><path class="cls-88" d="M742.81,586.19c2.1,3.18,5.55,5.22,7.27,8.71l-1.73.39-10.64.08-10.73,0-3.06-.44c-2.25-2.81-1.8-5.82-.71-8.89a2.07,2.07,0,0,1,.63-.39,13.37,13.37,0,0,1,9.72-.36l7.48.37Z"/><path class="cls-89" d="M733.56,585.25c-3.21,1-6.47.54-9.72.36-1.08-.89-.55-1.69.09-2.54l12.8-17.13c3.44-2.88,7.23-2.23,11.06-1.07Z"/><path class="cls-90" d="M202.93,579c-1.86,3.14-3.36,6.58-5.66,9.35-5.17,6.24-4.94,13.12-3.92,20.54,1.19,8.64,3,17.26,2.16,26.15-2.19-3.86-1.84-8.3-2.36-12.45-.38-3-1-4.79-4.17-5.76a38.45,38.45,0,0,1-10.15-5.12c4.61-.43,8.12,3.1,12.8,3.58,1.18-4.92-.83-9.69-.92-14.53S189.43,590.93,189,586c-.19-2.24-1.38-3.14-3.13-4-4-1.91-8-3.94-12-5.92-.21-1,.08-1.46,1.16-1.17,3,1.35,6.08,2.66,9.08,4,3.19,1.49,4.17.36,3.74-2.89-1.27-9.67-2.48-19.36-3.73-29-.1-.84-.19-1.65,1.38-3.2,3,16.41,3.72,32.43,6.28,49,4.37-5.33,6.81-10.89,10.1-15.87C203.57,577,203.73,577.77,202.93,579Z"/><path class="cls-91" d="M202.93,579a2,2,0,0,0-1-2c.28-1.3,1-3.32,2.2-2.37C206,576.11,204.07,577.71,202.93,579Z"/><path class="cls-92" d="M214.2,594.2a11.62,11.62,0,0,1,0,7.93Z"/><path class="cls-93" d="M175.07,574.94l-1.16,1.17c-1.28-.26-3.26-.81-2.41-2.15C172.52,572.36,174,574.16,175.07,574.94Z"/><path class="cls-94" d="M288.09,385.38c2.59,1.58,4.87,3.17,0,4.75C288.1,388.55,288.1,387,288.09,385.38Z"/><path class="cls-64" d="M119.41,467.12c-.15,5.82-5.39,11-10.83,10.73a11.23,11.23,0,0,1-10.4-11.28c.23-5.3,5.47-10.11,11-10.1A10.52,10.52,0,0,1,119.41,467.12Z"/><path class="cls-82" d="M414,606c-29.13-3.34-48.84-19.84-55.29-46.27-8.36-34.22,15.88-68.88,50.88-72.75,27.36-3,52.63,11.94,62.64,37.08a59.06,59.06,0,0,1-20.37,70.22c-3.7,2.67-4.6,4.88-2.88,8.68-1.65,1.78-3.86,1.69-6,1.71-5.61.07-11.22.12-16.83,0A44,44,0,0,0,414,606Z"/><path class="cls-16" d="M414,606c.88-2.13,2.18-3,4.76-3,10.07.17,20.14,0,30.22-.06l3,7.28,2,7.35-43.48-.44Z"/><path class="cls-95" d="M502.17,596.26c1,1.33,1.93,3,1,4.36-.78,1.12-2.36.61-3.32-.57Z"/><path class="cls-96" d="M550.72,645.16a31.37,31.37,0,0,0,.12,5c.86,4.88-1.42,6.53-5.93,6.12H532.67l-.76-1.35c5.55-1.94,8.61-6.93,13.62-9.54Z"/><path class="cls-3" d="M274.7,641.19c-2.92,2.24-5.64,4.74-6.92,8.27-1,2.78-2.69,2.28-4.65,1.44-1.86-2.74-4.29-4.46-7.74-4.38,5.4.26,5.21-3.79,5.52-7.3.77-8.71,1.42-17.43,2.12-26.15a5.17,5.17,0,0,1,6.9-.1Z"/><path class="cls-82" d="M269.93,613l-6.9.1,0-38.79c4.65-1.19,6.3.56,5.95,5.33C268.21,590.74,270,601.84,269.93,613Z"/><path class="cls-64" d="M421.14,193.91a10,10,0,0,1-9.71-9.47,9.56,9.56,0,0,1,9.91-9.63,9.76,9.76,0,0,1,9.52,9.58C430.84,189.19,426.05,193.88,421.14,193.91Z"/><path class="cls-97" d="M723.21,586c1.25,2.88.22,5.94.7,8.89a9.69,9.69,0,0,1-4.93,0l.18-8.94C720.53,585.07,721.86,585.72,723.21,586Z"/><path class="cls-98" d="M758.59,595.21c2.77.13,5.68-1.07,8.28.81l-8.06,0A2,2,0,0,1,758.59,595.21Z"/><path class="cls-99" d="M576.89,382.06l-9,1.08c-.18-3.7,1.68-7.4,0-11.1,2.38,2.61,4.46,5.54,7.73,7.21A2.12,2.12,0,0,1,576.89,382.06Z"/><path class="cls-100" d="M432.1,587.19c-11.58,0-11.57,0-7.4-11,1.17-3.1,2.16-6.26,3.4-9.33a4.42,4.42,0,0,1,4.23-2.94c2.2-.06,3.36,1.15,4.06,3,2.24,5.88,4.4,11.79,6.71,17.65.9,2.28-.29,2.62-2,2.63C438.07,587.21,435.09,587.19,432.1,587.19Z"/></g></g></svg>